<?xml version="1.0" encoding="utf-8"?>

<!DOCTYPE svg PUBLIC "-//W3C//DTD SVG 1.1//EN" "http://www.w3.org/Graphics/SVG/1.1/DTD/svg11.dtd">
<!-- Uploaded to: SVG Repo, www.svgrepo.com, Generator: SVG Repo Mixer Tools -->
<svg version="1.1" xmlns="http://www.w3.org/2000/svg" xmlns:xlink="http://www.w3.org/1999/xlink" 
	 width="800px" height="800px" viewBox="0 0 89.159 93.636" enable-background="new 0 0 89.159 93.636" xml:space="preserve">
<g id="Layer_2">
</g>
<g id="icons">
	<g>
		<g>
			<g>
				<g>
					
						<ellipse transform="matrix(0.7403 -0.6723 0.6723 0.7403 -43.6288 26.7093)" fill="#1F448C" cx="12.758" cy="69.827" rx="1.184" ry="1.184"/>
				</g>
				<g>
					<path fill="#1F448C" d="M14.685,93.636c-0.312,0-0.622-0.126-0.848-0.375L0.909,79.025c-1.3-1.432-1.193-3.654,0.239-4.954
						l18.698-16.979l1.539,1.695L2.687,75.765c-0.497,0.451-0.534,1.223-0.083,1.72l12.157,13.389l7.186-6.525l-4.514-12.683
						c-0.155-0.435-0.033-0.921,0.309-1.232l7.794-7.077l1.539,1.695l-7.229,6.564l4.514,12.683
						c0.155,0.435,0.033,0.921-0.309,1.232l-8.598,7.808C15.235,93.538,14.959,93.636,14.685,93.636z"/>
				</g>
				<g>
					<path fill="#1F448C" d="M2.535,80.256c-0.312,0-0.622-0.126-0.848-0.375c-0.425-0.468-0.39-1.192,0.078-1.617l6.947-6.308
						c0.468-0.425,1.192-0.391,1.617,0.078c0.425,0.468,0.39,1.192-0.078,1.617l-6.947,6.308
						C3.085,80.158,2.809,80.256,2.535,80.256z"/>
				</g>
			</g>
			<g>
				<path fill="#1F448C" d="M27.663,47.998c-0.312,0-0.622-0.126-0.848-0.375l-3.614-3.98c-0.425-0.468-0.39-1.192,0.078-1.617
					c0.468-0.425,1.192-0.391,1.617,0.078l3.614,3.98c0.425,0.468,0.39,1.192-0.078,1.617
					C28.213,47.899,27.938,47.998,27.663,47.998z"/>
			</g>
			<g>
				<path fill="#1F448C" d="M33.247,42.927c-0.312,0-0.622-0.126-0.848-0.375l-3.614-3.98c-0.425-0.468-0.39-1.192,0.078-1.617
					c0.468-0.426,1.192-0.39,1.617,0.078l3.614,3.98c0.425,0.468,0.39,1.192-0.078,1.617C33.798,42.829,33.522,42.927,33.247,42.927
					z"/>
			</g>
			<g>
				<path fill="#1F448C" d="M44.99,64.172c-1.822,0-3.637-0.738-4.955-2.189c-0.425-0.468-0.39-1.192,0.078-1.617
					c0.469-0.425,1.193-0.391,1.617,0.078c1.631,1.795,4.418,1.93,6.213,0.3c1.795-1.631,1.93-4.418,0.299-6.213
					c-0.425-0.468-0.39-1.192,0.078-1.617c0.468-0.425,1.193-0.39,1.617,0.078c2.479,2.73,2.275,6.969-0.455,9.448
					C48.205,63.599,46.595,64.171,44.99,64.172z"/>
			</g>
			<g>
				<path fill="#1F448C" d="M45.484,60.579c-1.048,0-2.062-0.443-2.773-1.224c-0.425-0.468-0.39-1.192,0.078-1.618
					c0.469-0.424,1.192-0.39,1.618,0.078c0.314,0.345,0.757,0.513,1.225,0.467c0.624-0.07,1.192,0.391,1.258,1.02
					c0.066,0.629-0.391,1.192-1.02,1.258C45.74,60.573,45.612,60.579,45.484,60.579z"/>
			</g>
			<g>
				<path fill="#1F448C" d="M34.119,80.88c-0.281,0-0.554-0.104-0.765-0.293c-0.239-0.214-0.376-0.518-0.38-0.838l-0.154-12.911
					c-0.011-0.908-0.609-1.496-1.164-1.743c-0.656-0.293-1.358-0.193-1.877,0.263c-0.473,0.416-1.216,0.39-1.634-0.08
					c-0.419-0.471-0.4-1.173,0.069-1.593c1.245-1.094,2.9-1.337,4.373-0.681c1.536,0.684,2.503,2.143,2.523,3.808l0.139,11.665
					l9.551-0.92c0.633-0.057,1.189,0.4,1.25,1.03c0.061,0.63-0.401,1.189-1.03,1.25l-10.791,1.04
					C34.192,80.878,34.156,80.88,34.119,80.88z"/>
			</g>
			<g>
				<path fill="#1F448C" d="M42.144,79.32c-0.626,0-1.137-0.504-1.145-1.131l-0.178-14.96c-0.007-0.633,0.499-1.151,1.131-1.159
					c0.656-0.018,1.151,0.499,1.159,1.131l0.178,14.96c0.007,0.633-0.499,1.151-1.131,1.159C42.153,79.32,42.149,79.32,42.144,79.32
					z"/>
			</g>
			<g>
				<path fill="#1F448C" d="M17.709,48.174c-0.754,0-1.475-0.319-1.979-0.874l-3.902-4.297c-0.479-0.527-0.723-1.211-0.689-1.925
					c0.035-0.714,0.344-1.371,0.871-1.85l16.102-14.621c1.048-0.95,2.824-0.864,3.774,0.182l3.902,4.297
					c0.479,0.527,0.723,1.211,0.689,1.924c-0.035,0.714-0.344,1.371-0.871,1.85L19.504,47.482
					C19.012,47.928,18.375,48.174,17.709,48.174z M29.906,26.205c-0.068,0-0.167,0.017-0.256,0.098L13.549,40.924
					c-0.1,0.091-0.12,0.205-0.123,0.264c-0.003,0.06,0.006,0.175,0.097,0.275l3.902,4.297c0.098,0.107,0.22,0.123,0.284,0.123
					c0.067,0,0.167-0.017,0.255-0.097l16.102-14.622c0.1-0.091,0.12-0.205,0.123-0.264s-0.006-0.175-0.097-0.275l-3.902-4.297
					C30.092,26.221,29.97,26.205,29.906,26.205z"/>
			</g>
			<g>
				<path fill="#1F448C" d="M13.427,50.195c-0.526,0-1.051-0.213-1.432-0.633l-2.779-3.061c-0.716-0.789-0.658-2.013,0.132-2.73
					l2.29-2.079c0.469-0.425,1.193-0.39,1.617,0.078c0.425,0.468,0.39,1.192-0.078,1.617l-2.025,1.839l2.298,2.531l2.025-1.839
					c0.469-0.426,1.193-0.39,1.617,0.078c0.425,0.468,0.39,1.192-0.078,1.617l-2.29,2.079C14.356,50.03,13.891,50.195,13.427,50.195
					z"/>
			</g>
			<g>
				<path fill="#1F448C" d="M35.407,30.512c-0.312,0-0.622-0.126-0.848-0.375c-0.425-0.468-0.39-1.192,0.078-1.617l4.357-3.956
					l-2.298-2.531l-4.357,3.956c-0.467,0.426-1.192,0.391-1.617-0.078c-0.425-0.468-0.39-1.192,0.078-1.617l4.622-4.197
					c0.381-0.346,0.873-0.527,1.392-0.499c0.516,0.025,0.991,0.249,1.337,0.63l2.779,3.061c0.716,0.789,0.658,2.013-0.132,2.73
					l-4.622,4.196C35.957,30.414,35.682,30.512,35.407,30.512z"/>
			</g>
			<g>
				<path fill="#1F448C" d="M34.323,66.773c-0.312,0-0.622-0.126-0.848-0.375c-0.425-0.468-0.39-1.192,0.078-1.617l16.09-14.61
					c0.469-0.425,1.193-0.39,1.617,0.078c0.425,0.468,0.39,1.192-0.078,1.617l-16.09,14.61
					C34.873,66.675,34.598,66.773,34.323,66.773z"/>
			</g>
			<g>
				<path fill="#1F448C" d="M55.617,59.758c-0.312,0-0.622-0.126-0.848-0.375l-5.866-6.46c-0.425-0.468-0.39-1.192,0.078-1.617
					c0.468-0.425,1.193-0.391,1.617,0.078l5.866,6.46c0.425,0.468,0.39,1.192-0.078,1.617
					C56.167,59.659,55.891,59.758,55.617,59.758z"/>
			</g>
			<g>
				<path fill="#1F448C" d="M62.452,48.242c-0.312,0-0.622-0.126-0.848-0.375l-5.389-5.934c-0.103-0.113-0.231-0.135-0.298-0.139
					c-0.065-0.003-0.197,0.006-0.309,0.109c-0.468,0.425-1.192,0.391-1.617-0.078c-0.425-0.468-0.39-1.192,0.078-1.617
					c0.536-0.487,1.233-0.733,1.959-0.701c0.727,0.035,1.396,0.35,1.883,0.887l5.388,5.934c0.425,0.468,0.39,1.192-0.078,1.617
					C63.002,48.143,62.726,48.242,62.452,48.242z"/>
			</g>
			<g>
				<path fill="#1F448C" d="M55.291,60.663c-0.214,0-0.43-0.06-0.622-0.185c-0.53-0.344-0.681-1.053-0.337-1.584l8.908-13.716
					c0.344-0.53,1.053-0.681,1.584-0.337c0.53,0.344,0.681,1.053,0.337,1.584l-8.908,13.716
					C56.033,60.479,55.666,60.663,55.291,60.663z"/>
			</g>
			<g>
				<path fill="#1F448C" d="M70.145,67.323c-0.214,0-0.43-0.06-0.622-0.185c-0.53-0.344-0.681-1.053-0.337-1.584l6.38-9.822
					c0.344-0.53,1.053-0.681,1.584-0.337c0.53,0.344,0.681,1.053,0.337,1.584l-6.38,9.822
					C70.887,67.139,70.519,67.323,70.145,67.323z"/>
			</g>
			<g>
				<path fill="#1F448C" d="M70.146,67.323c-0.114,0-0.23-0.017-0.345-0.054c-5.378-1.698-10.236-4.815-14.048-9.013
					c-0.425-0.468-0.39-1.192,0.078-1.617c0.468-0.425,1.193-0.39,1.617,0.078c3.541,3.898,8.05,6.792,13.042,8.369
					c0.603,0.19,0.937,0.833,0.747,1.437C71.084,67.011,70.632,67.323,70.146,67.323z"/>
			</g>
			<g>
				<path fill="#1F448C" d="M71.476,64.559c-0.13,0-0.262-0.022-0.391-0.069c-4.852-1.763-9.262-4.728-12.754-8.574
					c-0.425-0.468-0.39-1.192,0.078-1.617c0.469-0.426,1.193-0.39,1.617,0.078c3.244,3.572,7.338,6.325,11.841,7.961
					c0.595,0.216,0.901,0.873,0.685,1.467C72.383,64.27,71.943,64.559,71.476,64.559z"/>
			</g>
			<g>
				<path fill="#1F448C" d="M74.401,59.139c-0.128,0-0.259-0.022-0.386-0.067c-4.908-1.758-9.367-4.74-12.894-8.625
					c-0.425-0.468-0.39-1.192,0.078-1.617c0.468-0.425,1.193-0.39,1.617,0.078c3.276,3.607,7.415,6.376,11.971,8.008
					c0.595,0.213,0.905,0.869,0.692,1.464C75.312,58.848,74.871,59.139,74.401,59.139z"/>
			</g>
			<g>
				<path fill="#1F448C" d="M25.617,58.759c-0.753,0-1.475-0.319-1.979-0.874l-0.312-0.344c-0.991-1.091-0.909-2.784,0.182-3.775
					l21.985-19.964c1.048-0.95,2.825-0.865,3.774,0.182l0.313,0.344c0.99,1.091,0.909,2.784-0.182,3.774L27.411,58.067
					C26.92,58.513,26.283,58.759,25.617,58.759z M47.287,35.401c-0.068,0-0.167,0.017-0.256,0.098L25.046,55.462
					c-0.153,0.139-0.165,0.386-0.026,0.539l0.312,0.344c0.098,0.108,0.22,0.124,0.284,0.124c0.067,0,0.167-0.017,0.255-0.097
					l21.985-19.964c0.153-0.139,0.165-0.386,0.026-0.539l-0.312-0.344C47.473,35.417,47.351,35.401,47.287,35.401z"/>
			</g>
			<g>
				<path fill="#1F448C" d="M27.842,65.886c-0.955,0-1.907-0.387-2.598-1.148l-6.219-6.849c-0.628-0.691-0.949-1.589-0.904-2.526
					c0.045-0.937,0.451-1.8,1.142-2.428l26.43-24c0.691-0.628,1.586-0.95,2.526-0.904c0.938,0.045,1.8,0.451,2.428,1.143
					l6.219,6.849c0.628,0.691,0.949,1.589,0.904,2.526c-0.045,0.937-0.451,1.8-1.142,2.428l-26.43,24
					C29.527,65.586,28.683,65.886,27.842,65.886z M23.534,52.148l-2.733,2.481c-0.239,0.217-0.379,0.516-0.394,0.843
					s0.095,0.638,0.312,0.877l6.22,6.849c0.452,0.497,1.223,0.534,1.719,0.083l26.43-24c0.497-0.451,0.534-1.223,0.083-1.719
					l-6.22-6.849c-0.217-0.239-0.516-0.379-0.843-0.395c-0.331-0.021-0.638,0.095-0.877,0.312L23.534,52.148z"/>
			</g>
			<g>
				<g>
					<g>
						<path fill="#1F448C" d="M57.107,36.819l-1.539-1.695l15.037-13.655l-4.151-4.571L51.63,30.358l-1.539-1.695l15.671-14.231
							c0.468-0.425,1.193-0.39,1.617,0.078l5.691,6.266c0.204,0.225,0.311,0.521,0.296,0.825c-0.015,0.303-0.149,0.589-0.374,0.792
							L57.107,36.819z"/>
					</g>
					<g>
						<g>
							<path fill="#1F448C" d="M57.905,31.602c-0.312,0-0.622-0.126-0.848-0.375c-0.433-0.477-0.984-0.827-1.594-1.015
								c-0.605-0.186-0.945-0.826-0.759-1.431c0.186-0.605,0.826-0.946,1.431-0.759c1.003,0.308,1.908,0.883,2.617,1.664
								c0.425,0.468,0.39,1.192-0.078,1.618C58.455,31.503,58.18,31.602,57.905,31.602z"/>
						</g>
						<g>
							<path fill="#1F448C" d="M61.086,28.712c-0.312,0-0.622-0.126-0.848-0.375c-0.432-0.476-0.983-0.827-1.594-1.015
								c-0.605-0.186-0.944-0.826-0.758-1.431c0.186-0.604,0.829-0.945,1.431-0.758c1.004,0.308,1.909,0.884,2.617,1.664
								c0.425,0.468,0.39,1.192-0.078,1.618C61.636,28.614,61.361,28.712,61.086,28.712z"/>
						</g>
						<g>
							<path fill="#1F448C" d="M64.268,25.823c-0.312,0-0.622-0.126-0.848-0.375c-0.432-0.476-0.984-0.827-1.594-1.015
								c-0.605-0.186-0.944-0.826-0.758-1.431c0.186-0.605,0.828-0.944,1.431-0.758c1.003,0.308,1.908,0.883,2.617,1.664
								c0.425,0.468,0.39,1.192-0.078,1.618C64.818,25.725,64.543,25.823,64.268,25.823z"/>
						</g>
					</g>
				</g>
				<g>
					<path fill="#1F448C" d="M72.238,21.565l-1.539-1.695L86.73,5.312c0.172-0.157,0.186-0.435,0.029-0.607l-2.066-2.276
						c-0.157-0.173-0.434-0.185-0.607-0.029L68.055,16.957l-1.539-1.695L82.546,0.705c1.11-1.008,2.833-0.926,3.842,0.185
						l2.066,2.276c1.008,1.11,0.925,2.834-0.185,3.842L72.238,21.565z"/>
				</g>
			</g>
			<g>
				<path fill="#1F448C" d="M74.675,18.951c-0.312,0-0.622-0.126-0.848-0.375l-4.184-4.607c-0.425-0.468-0.39-1.192,0.078-1.617
					c0.468-0.425,1.192-0.391,1.617,0.078l4.184,4.607c0.425,0.468,0.39,1.192-0.078,1.617
					C75.225,18.853,74.95,18.951,74.675,18.951z"/>
			</g>
		</g>
	</g>
</g>
</svg>